<svg width="553" height="198" viewBox="0 0 553 198" fill="none" xmlns="http://www.w3.org/2000/svg">
<g filter="url(#filter0_d_1173_277)">
<rect x="0.244054" y="0.429525" width="55" height="55" rx="5.5" transform="matrix(1 0 -0.511893 0.859049 115.348 0.0605418)" stroke="#192937"/>
<rect x="0.244054" y="0.429525" width="55" height="55" rx="5.5" transform="matrix(1 0 -0.511893 0.859049 170.348 0.0605418)" stroke="#192937"/>
<rect x="0.244054" y="0.429525" width="55" height="55" rx="5.5" transform="matrix(1 0 -0.511893 0.859049 225.348 0.0605418)" stroke="#192937"/>
<rect x="0.244054" y="0.429525" width="55" height="55" rx="5.5" transform="matrix(1 0 -0.511893 0.859049 280.348 0.0605418)" stroke="#192937"/>
<rect x="0.244054" y="0.429525" width="55" height="55" rx="5.5" transform="matrix(1 0 -0.511893 0.859049 335.348 0.0605418)" stroke="#192937"/>
<rect x="0.244054" y="0.429525" width="55" height="55" rx="5.5" transform="matrix(1 0 -0.511893 0.859049 390.348 0.0605418)" stroke="#192937"/>
<rect x="0.244054" y="0.429525" width="55" height="55" rx="5.5" transform="matrix(1 0 -0.511893 0.859049 445.348 0.0605418)" stroke="#192937"/>
<rect x="0.244054" y="0.429525" width="55" height="55" rx="5.5" transform="matrix(1 0 -0.511893 0.859049 500.348 0.0605418)" stroke="#192937"/>
<rect x="0.244054" y="0.429525" width="55" height="55" rx="5.5" transform="matrix(1 0 -0.511893 0.859049 555.348 0.0605418)" stroke="#192937"/>
<rect x="0.244054" y="0.429525" width="55" height="55" rx="5.5" transform="matrix(1 0 -0.511893 0.859049 87.194 47.3083)" stroke="#192937"/>
<rect x="0.244054" y="0.429525" width="55" height="55" rx="5.5" transform="matrix(1 0 -0.511893 0.859049 142.194 47.3083)" stroke="#192937"/>
<rect x="0.244054" y="0.429525" width="55" height="55" rx="5.5" transform="matrix(1 0 -0.511893 0.859049 197.194 47.3083)" stroke="#192937"/>
<rect x="0.244054" y="0.429525" width="55" height="55" rx="5.5" transform="matrix(1 0 -0.511893 0.859049 252.194 47.3083)" stroke="#192937"/>
<rect x="0.244054" y="0.429525" width="55" height="55" rx="5.5" transform="matrix(1 0 -0.511893 0.859049 307.194 47.3083)" stroke="#192937"/>
<rect x="0.244054" y="0.429525" width="55" height="55" rx="5.5" transform="matrix(1 0 -0.511893 0.859049 362.194 47.3083)" stroke="#192937"/>
<rect x="0.244054" y="0.429525" width="55" height="55" rx="5.5" transform="matrix(1 0 -0.511893 0.859049 417.194 47.3083)" stroke="#192937"/>
<rect x="0.244054" y="0.429525" width="55" height="55" rx="5.5" transform="matrix(1 0 -0.511893 0.859049 472.194 47.3083)" stroke="#192937"/>
<rect x="0.244054" y="0.429525" width="55" height="55" rx="5.5" transform="matrix(1 0 -0.511893 0.859049 527.194 47.3083)" stroke="#192937"/>
<rect x="0.244054" y="0.429525" width="55" height="55" rx="5.5" transform="matrix(1 0 -0.511893 0.859049 59.0398 94.556)" stroke="#192937"/>
<rect x="0.244054" y="0.429525" width="55" height="55" rx="5.5" transform="matrix(1 0 -0.511893 0.859049 114.04 94.556)" stroke="#192937"/>
<rect x="0.244054" y="0.429525" width="55" height="55" rx="5.5" transform="matrix(1 0 -0.511893 0.859049 169.04 94.556)" stroke="#192937"/>
<rect x="0.244054" y="0.429525" width="55" height="55" rx="5.5" transform="matrix(1 0 -0.511893 0.859049 224.04 94.556)" stroke="#192937"/>
<rect x="0.244054" y="0.429525" width="55" height="55" rx="5.5" transform="matrix(1 0 -0.511893 0.859049 279.04 94.556)" stroke="#192937"/>
<rect x="0.244054" y="0.429525" width="55" height="55" rx="5.5" transform="matrix(1 0 -0.511893 0.859049 334.04 94.556)" stroke="#192937"/>
<rect x="0.244054" y="0.429525" width="55" height="55" rx="5.5" transform="matrix(1 0 -0.511893 0.859049 389.04 94.556)" stroke="#192937"/>
<rect x="0.244054" y="0.429525" width="55" height="55" rx="5.5" transform="matrix(1 0 -0.511893 0.859049 444.04 94.556)" stroke="#192937"/>
<rect x="0.244054" y="0.429525" width="55" height="55" rx="5.5" transform="matrix(1 0 -0.511893 0.859049 499.04 94.556)" stroke="#192937"/>
<rect x="0.244054" y="0.429525" width="55" height="55" rx="5.5" transform="matrix(1 0 -0.511893 0.859049 554.04 94.556)" stroke="#192937"/>
<rect x="0.244054" y="0.429525" width="55" height="55" rx="5.5" transform="matrix(1 0 -0.511893 0.859049 30.8858 141.804)" stroke="#192937"/>
<rect x="0.244054" y="0.429525" width="55" height="55" rx="5.5" transform="matrix(1 0 -0.511893 0.859049 85.8858 141.804)" stroke="#192937"/>
<rect x="0.244054" y="0.429525" width="55" height="55" rx="5.5" transform="matrix(1 0 -0.511893 0.859049 140.886 141.804)" stroke="#192937"/>
<rect x="0.244054" y="0.429525" width="55" height="55" rx="5.5" transform="matrix(1 0 -0.511893 0.859049 195.886 141.804)" stroke="#192937"/>
<rect x="0.244054" y="0.429525" width="55" height="55" rx="5.5" transform="matrix(1 0 -0.511893 0.859049 250.886 141.804)" stroke="#192937"/>
<rect x="0.244054" y="0.429525" width="55" height="55" rx="5.5" transform="matrix(1 0 -0.511893 0.859049 305.886 141.804)" stroke="#192937"/>
<rect x="0.244054" y="0.429525" width="55" height="55" rx="5.5" transform="matrix(1 0 -0.511893 0.859049 360.886 141.804)" stroke="#192937"/>
<rect x="0.244054" y="0.429525" width="55" height="55" rx="5.5" transform="matrix(1 0 -0.511893 0.859049 415.886 141.804)" stroke="#192937"/>
<rect x="0.244054" y="0.429525" width="55" height="55" rx="5.5" transform="matrix(1 0 -0.511893 0.859049 470.886 141.804)" stroke="#192937"/>
<rect x="0.244054" y="0.429525" width="55" height="55" rx="5.5" transform="matrix(1 0 -0.511893 0.859049 525.886 141.804)" stroke="#192937"/>
</g>
<defs>
<filter id="filter0_d_1173_277" x="0.329346" y="0" width="667.469" height="197.85" filterUnits="userSpaceOnUse" color-interpolation-filters="sRGB">
<feFlood flood-opacity="0" result="BackgroundImageFix"/>
<feColorMatrix in="SourceAlpha" type="matrix" values="0 0 0 0 0 0 0 0 0 0 0 0 0 0 0 0 0 0 127 0" result="hardAlpha"/>
<feOffset dy="4"/>
<feGaussianBlur stdDeviation="2"/>
<feComposite in2="hardAlpha" operator="out"/>
<feColorMatrix type="matrix" values="0 0 0 0 0 0 0 0 0 0 0 0 0 0 0 0 0 0 0.25 0"/>
<feBlend mode="normal" in2="BackgroundImageFix" result="effect1_dropShadow_1173_277"/>
<feBlend mode="normal" in="SourceGraphic" in2="effect1_dropShadow_1173_277" result="shape"/>
</filter>
</defs>
</svg>
