<svg width="664.128296" height="189.849854" viewBox="0 0 664.128 189.85" fill="none" xmlns="http://www.w3.org/2000/svg" xmlns:xlink="http://www.w3.org/1999/xlink">
	<desc>
			Created with Pixso.
	</desc>
	<defs/>
	<rect id="Rectangle 12" x="113.372314" y="0.429535" rx="6.000000" width="55.000000" height="55.000000" stroke="#192937" stroke-opacity="1.000000" stroke-width="1.000000"/>
	<rect id="Rectangle 13" x="168.372314" y="0.429535" rx="6.000000" width="55.000000" height="55.000000" stroke="#192937" stroke-opacity="1.000000" stroke-width="1.000000"/>
	<rect id="Rectangle 14" x="223.372314" y="0.429535" rx="6.000000" width="55.000000" height="55.000000" stroke="#192937" stroke-opacity="1.000000" stroke-width="1.000000"/>
	<rect id="Rectangle 15" x="278.372314" y="0.429535" rx="6.000000" width="55.000000" height="55.000000" stroke="#192937" stroke-opacity="1.000000" stroke-width="1.000000"/>
	<rect id="Rectangle 16" x="333.372314" y="0.429535" rx="6.000000" width="55.000000" height="55.000000" stroke="#192937" stroke-opacity="1.000000" stroke-width="1.000000"/>
	<rect id="Rectangle 17" x="388.372314" y="0.429535" rx="6.000000" width="55.000000" height="55.000000" stroke="#192937" stroke-opacity="1.000000" stroke-width="1.000000"/>
	<rect id="Rectangle 18" x="443.372314" y="0.429535" rx="6.000000" width="55.000000" height="55.000000" stroke="#192937" stroke-opacity="1.000000" stroke-width="1.000000"/>
	<rect id="Rectangle 19" x="498.372314" y="0.429535" rx="6.000000" width="55.000000" height="55.000000" stroke="#192937" stroke-opacity="1.000000" stroke-width="1.000000"/>
	<rect id="Rectangle 20" x="553.372314" y="0.429535" rx="6.000000" width="55.000000" height="55.000000" stroke="#192937" stroke-opacity="1.000000" stroke-width="1.000000"/>
	<rect id="Rectangle 21" x="608.372314" y="0.429535" rx="6.000000" width="55.000000" height="55.000000" stroke="#192937" stroke-opacity="1.000000" stroke-width="1.000000"/>
	<rect id="Rectangle 12" x="85.218262" y="47.677246" rx="6.000000" width="55.000000" height="55.000000" stroke="#192937" stroke-opacity="1.000000" stroke-width="1.000000"/>
	<rect id="Rectangle 13" x="140.218262" y="47.677246" rx="6.000000" width="55.000000" height="55.000000" stroke="#192937" stroke-opacity="1.000000" stroke-width="1.000000"/>
	<rect id="Rectangle 14" x="195.218262" y="47.677246" rx="6.000000" width="55.000000" height="55.000000" stroke="#192937" stroke-opacity="1.000000" stroke-width="1.000000"/>
	<rect id="Rectangle 15" x="250.218262" y="47.677246" rx="6.000000" width="55.000000" height="55.000000" stroke="#192937" stroke-opacity="1.000000" stroke-width="1.000000"/>
	<rect id="Rectangle 16" x="305.218262" y="47.677246" rx="6.000000" width="55.000000" height="55.000000" stroke="#192937" stroke-opacity="1.000000" stroke-width="1.000000"/>
	<rect id="Rectangle 17" x="360.218262" y="47.677246" rx="6.000000" width="55.000000" height="55.000000" stroke="#192937" stroke-opacity="1.000000" stroke-width="1.000000"/>
	<rect id="Rectangle 18" x="415.218262" y="47.677246" rx="6.000000" width="55.000000" height="55.000000" stroke="#192937" stroke-opacity="1.000000" stroke-width="1.000000"/>
	<rect id="Rectangle 19" x="470.218262" y="47.677246" rx="6.000000" width="55.000000" height="55.000000" stroke="#192937" stroke-opacity="1.000000" stroke-width="1.000000"/>
	<rect id="Rectangle 20" x="525.218262" y="47.677246" rx="6.000000" width="55.000000" height="55.000000" stroke="#192937" stroke-opacity="1.000000" stroke-width="1.000000"/>
	<rect id="Rectangle 21" x="580.218262" y="47.677246" rx="6.000000" width="55.000000" height="55.000000" stroke="#192937" stroke-opacity="1.000000" stroke-width="1.000000"/>
	<rect id="Rectangle 12" x="57.064087" y="94.924957" rx="6.000000" width="55.000000" height="55.000000" stroke="#192937" stroke-opacity="1.000000" stroke-width="1.000000"/>
	<rect id="Rectangle 13" x="112.064087" y="94.924957" rx="6.000000" width="55.000000" height="55.000000" stroke="#192937" stroke-opacity="1.000000" stroke-width="1.000000"/>
	<rect id="Rectangle 14" x="167.064087" y="94.924957" rx="6.000000" width="55.000000" height="55.000000" stroke="#192937" stroke-opacity="1.000000" stroke-width="1.000000"/>
	<rect id="Rectangle 15" x="222.064087" y="94.924957" rx="6.000000" width="55.000000" height="55.000000" stroke="#192937" stroke-opacity="1.000000" stroke-width="1.000000"/>
	<rect id="Rectangle 16" x="277.064087" y="94.924957" rx="6.000000" width="55.000000" height="55.000000" stroke="#192937" stroke-opacity="1.000000" stroke-width="1.000000"/>
	<rect id="Rectangle 17" x="332.064087" y="94.924957" rx="6.000000" width="55.000000" height="55.000000" stroke="#192937" stroke-opacity="1.000000" stroke-width="1.000000"/>
	<rect id="Rectangle 18" x="387.064087" y="94.924957" rx="6.000000" width="55.000000" height="55.000000" stroke="#192937" stroke-opacity="1.000000" stroke-width="1.000000"/>
	<rect id="Rectangle 19" x="442.064087" y="94.924957" rx="6.000000" width="55.000000" height="55.000000" stroke="#192937" stroke-opacity="1.000000" stroke-width="1.000000"/>
	<rect id="Rectangle 20" x="497.064087" y="94.924957" rx="6.000000" width="55.000000" height="55.000000" stroke="#192937" stroke-opacity="1.000000" stroke-width="1.000000"/>
	<rect id="Rectangle 21" x="552.064087" y="94.924957" rx="6.000000" width="55.000000" height="55.000000" stroke="#192937" stroke-opacity="1.000000" stroke-width="1.000000"/>
	<rect id="Rectangle 12" x="28.909912" y="142.172638" rx="6.000000" width="55.000000" height="55.000000" stroke="#192937" stroke-opacity="1.000000" stroke-width="1.000000"/>
	<rect id="Rectangle 13" x="83.909912" y="142.172638" rx="6.000000" width="55.000000" height="55.000000" stroke="#192937" stroke-opacity="1.000000" stroke-width="1.000000"/>
	<rect id="Rectangle 14" x="138.909912" y="142.172638" rx="6.000000" width="55.000000" height="55.000000" stroke="#192937" stroke-opacity="1.000000" stroke-width="1.000000"/>
	<rect id="Rectangle 15" x="193.909912" y="142.172638" rx="6.000000" width="55.000000" height="55.000000" stroke="#192937" stroke-opacity="1.000000" stroke-width="1.000000"/>
	<rect id="Rectangle 16" x="248.909912" y="142.172638" rx="6.000000" width="55.000000" height="55.000000" stroke="#192937" stroke-opacity="1.000000" stroke-width="1.000000"/>
	<rect id="Rectangle 17" x="303.909912" y="142.172638" rx="6.000000" width="55.000000" height="55.000000" stroke="#192937" stroke-opacity="1.000000" stroke-width="1.000000"/>
	<rect id="Rectangle 18" x="358.909912" y="142.172638" rx="6.000000" width="55.000000" height="55.000000" stroke="#192937" stroke-opacity="1.000000" stroke-width="1.000000"/>
	<rect id="Rectangle 19" x="413.909912" y="142.172638" rx="6.000000" width="55.000000" height="55.000000" stroke="#192937" stroke-opacity="1.000000" stroke-width="1.000000"/>
	<rect id="Rectangle 20" x="468.909912" y="142.172638" rx="6.000000" width="55.000000" height="55.000000" stroke="#192937" stroke-opacity="1.000000" stroke-width="1.000000"/>
	<rect id="Rectangle 21" x="523.909912" y="142.172638" rx="6.000000" width="55.000000" height="55.000000" stroke="#192937" stroke-opacity="1.000000" stroke-width="1.000000"/>
</svg>
