<svg width="664.128357" height="189.849884" viewBox="0 0 664.128 189.85" fill="none" xmlns="http://www.w3.org/2000/svg" xmlns:xlink="http://www.w3.org/1999/xlink">
	<desc>
			Created with Pixso.
	</desc>
	<defs/>
	<rect id="Rectangle 12" x="113.372437" y="0.429527" rx="6.000000" width="55.000000" height="55.000000" stroke="#192937" stroke-opacity="1.000000" stroke-width="1.000000"/>
	<rect id="Rectangle 13" x="168.372437" y="0.429527" rx="6.000000" width="55.000000" height="55.000000" stroke="#192937" stroke-opacity="1.000000" stroke-width="1.000000"/>
	<rect id="Rectangle 14" x="223.372437" y="0.429527" rx="6.000000" width="55.000000" height="55.000000" stroke="#192937" stroke-opacity="1.000000" stroke-width="1.000000"/>
	<rect id="Rectangle 15" x="278.372375" y="0.429527" rx="6.000000" width="55.000000" height="55.000000" stroke="#192937" stroke-opacity="1.000000" stroke-width="1.000000"/>
	<rect id="Rectangle 16" x="333.372375" y="0.429527" rx="6.000000" width="55.000000" height="55.000000" stroke="#192937" stroke-opacity="1.000000" stroke-width="1.000000"/>
	<rect id="Rectangle 17" x="388.372375" y="0.429527" rx="6.000000" width="55.000000" height="55.000000" stroke="#192937" stroke-opacity="1.000000" stroke-width="1.000000"/>
	<rect id="Rectangle 18" x="443.372375" y="0.429527" rx="6.000000" width="55.000000" height="55.000000" stroke="#192937" stroke-opacity="1.000000" stroke-width="1.000000"/>
	<rect id="Rectangle 19" x="498.372375" y="0.429527" rx="6.000000" width="55.000000" height="55.000000" stroke="#192937" stroke-opacity="1.000000" stroke-width="1.000000"/>
	<rect id="Rectangle 20" x="553.372375" y="0.429527" rx="6.000000" width="55.000000" height="55.000000" stroke="#192937" stroke-opacity="1.000000" stroke-width="1.000000"/>
	<rect id="Rectangle 21" x="608.372375" y="0.429527" rx="6.000000" width="55.000000" height="55.000000" stroke="#192937" stroke-opacity="1.000000" stroke-width="1.000000"/>
	<rect id="Rectangle 12" x="85.218323" y="47.677238" rx="6.000000" width="55.000000" height="55.000000" stroke="#192937" stroke-opacity="1.000000" stroke-width="1.000000"/>
	<rect id="Rectangle 13" x="140.218384" y="47.677238" rx="6.000000" width="55.000000" height="55.000000" stroke="#192937" stroke-opacity="1.000000" stroke-width="1.000000"/>
	<rect id="Rectangle 14" x="195.218384" y="47.677238" rx="6.000000" width="55.000000" height="55.000000" stroke="#192937" stroke-opacity="1.000000" stroke-width="1.000000"/>
	<rect id="Rectangle 15" x="250.218384" y="47.677238" rx="6.000000" width="55.000000" height="55.000000" stroke="#192937" stroke-opacity="1.000000" stroke-width="1.000000"/>
	<rect id="Rectangle 16" x="305.218323" y="47.677238" rx="6.000000" width="55.000000" height="55.000000" stroke="#192937" stroke-opacity="1.000000" stroke-width="1.000000"/>
	<rect id="Rectangle 17" x="360.218323" y="47.677238" rx="6.000000" width="55.000000" height="55.000000" stroke="#192937" stroke-opacity="1.000000" stroke-width="1.000000"/>
	<rect id="Rectangle 18" x="415.218323" y="47.677238" rx="6.000000" width="55.000000" height="55.000000" stroke="#192937" stroke-opacity="1.000000" stroke-width="1.000000"/>
	<rect id="Rectangle 19" x="470.218323" y="47.677238" rx="6.000000" width="55.000000" height="55.000000" stroke="#192937" stroke-opacity="1.000000" stroke-width="1.000000"/>
	<rect id="Rectangle 20" x="525.218323" y="47.677238" rx="6.000000" width="55.000000" height="55.000000" stroke="#192937" stroke-opacity="1.000000" stroke-width="1.000000"/>
	<rect id="Rectangle 21" x="580.218323" y="47.677238" rx="6.000000" width="55.000000" height="55.000000" stroke="#192937" stroke-opacity="1.000000" stroke-width="1.000000"/>
	<rect id="Rectangle 12" x="57.064209" y="94.924942" rx="6.000000" width="55.000000" height="55.000000" stroke="#192937" stroke-opacity="1.000000" stroke-width="1.000000"/>
	<rect id="Rectangle 13" x="112.064209" y="94.924942" rx="6.000000" width="55.000000" height="55.000000" stroke="#192937" stroke-opacity="1.000000" stroke-width="1.000000"/>
	<rect id="Rectangle 14" x="167.064209" y="94.924942" rx="6.000000" width="55.000000" height="55.000000" stroke="#192937" stroke-opacity="1.000000" stroke-width="1.000000"/>
	<rect id="Rectangle 15" x="222.064209" y="94.924942" rx="6.000000" width="55.000000" height="55.000000" stroke="#192937" stroke-opacity="1.000000" stroke-width="1.000000"/>
	<rect id="Rectangle 16" x="277.064148" y="94.924942" rx="6.000000" width="55.000000" height="55.000000" stroke="#192937" stroke-opacity="1.000000" stroke-width="1.000000"/>
	<rect id="Rectangle 17" x="332.064148" y="94.924942" rx="6.000000" width="55.000000" height="55.000000" stroke="#192937" stroke-opacity="1.000000" stroke-width="1.000000"/>
	<rect id="Rectangle 18" x="387.064148" y="94.924942" rx="6.000000" width="55.000000" height="55.000000" stroke="#192937" stroke-opacity="1.000000" stroke-width="1.000000"/>
	<rect id="Rectangle 19" x="442.064148" y="94.924942" rx="6.000000" width="55.000000" height="55.000000" stroke="#192937" stroke-opacity="1.000000" stroke-width="1.000000"/>
	<rect id="Rectangle 20" x="497.064148" y="94.924942" rx="6.000000" width="55.000000" height="55.000000" stroke="#192937" stroke-opacity="1.000000" stroke-width="1.000000"/>
	<rect id="Rectangle 21" x="552.064148" y="94.924942" rx="6.000000" width="55.000000" height="55.000000" stroke="#192937" stroke-opacity="1.000000" stroke-width="1.000000"/>
	<rect id="Rectangle 12" x="28.910095" y="142.172638" rx="6.000000" width="55.000000" height="55.000000" stroke="#192937" stroke-opacity="1.000000" stroke-width="1.000000"/>
	<rect id="Rectangle 13" x="83.910095" y="142.172638" rx="6.000000" width="55.000000" height="55.000000" stroke="#192937" stroke-opacity="1.000000" stroke-width="1.000000"/>
	<rect id="Rectangle 14" x="138.910034" y="142.172638" rx="6.000000" width="55.000000" height="55.000000" stroke="#192937" stroke-opacity="1.000000" stroke-width="1.000000"/>
	<rect id="Rectangle 15" x="193.910034" y="142.172638" rx="6.000000" width="55.000000" height="55.000000" stroke="#192937" stroke-opacity="1.000000" stroke-width="1.000000"/>
	<rect id="Rectangle 16" x="248.910034" y="142.172638" rx="6.000000" width="55.000000" height="55.000000" stroke="#192937" stroke-opacity="1.000000" stroke-width="1.000000"/>
	<rect id="Rectangle 17" x="303.909973" y="142.172638" rx="6.000000" width="55.000000" height="55.000000" stroke="#192937" stroke-opacity="1.000000" stroke-width="1.000000"/>
	<rect id="Rectangle 18" x="358.909973" y="142.172638" rx="6.000000" width="55.000000" height="55.000000" stroke="#192937" stroke-opacity="1.000000" stroke-width="1.000000"/>
	<rect id="Rectangle 19" x="413.909973" y="142.172638" rx="6.000000" width="55.000000" height="55.000000" stroke="#192937" stroke-opacity="1.000000" stroke-width="1.000000"/>
	<rect id="Rectangle 20" x="468.909973" y="142.172638" rx="6.000000" width="55.000000" height="55.000000" stroke="#192937" stroke-opacity="1.000000" stroke-width="1.000000"/>
	<rect id="Rectangle 21" x="523.909973" y="142.172638" rx="6.000000" width="55.000000" height="55.000000" stroke="#192937" stroke-opacity="1.000000" stroke-width="1.000000"/>
</svg>
