<svg width="20" height="18" viewBox="0 0 20 18" fill="none" xmlns="http://www.w3.org/2000/svg">
<path d="M18.7083 14.5L12.619 8.99999M7.38095 8.99999L1.2917 14.5M0.833334 4.41666L8.31784 9.65581C8.92392 10.0801 9.22695 10.2922 9.55658 10.3744C9.84774 10.4469 10.1523 10.4469 10.4434 10.3744C10.773 10.2922 11.0761 10.0801 11.6822 9.65581L19.1667 4.41666M5.23333 16.3333H14.7667C16.3068 16.3333 17.0769 16.3333 17.6651 16.0336C18.1826 15.7699 18.6033 15.3492 18.8669 14.8318C19.1667 14.2435 19.1667 13.4735 19.1667 11.9333V6.06666C19.1667 4.52651 19.1667 3.75644 18.8669 3.16818C18.6033 2.65074 18.1826 2.23004 17.6651 1.96639C17.0769 1.66666 16.3068 1.66666 14.7667 1.66666H5.23333C3.69319 1.66666 2.92312 1.66666 2.33486 1.96639C1.81741 2.23004 1.39672 2.65074 1.13307 3.16818C0.833334 3.75644 0.833334 4.52651 0.833334 6.06666V11.9333C0.833334 13.4735 0.833334 14.2435 1.13307 14.8318C1.39672 15.3492 1.81741 15.7699 2.33486 16.0336C2.92312 16.3333 3.69319 16.3333 5.23333 16.3333Z" stroke="#B2BEE2" stroke-width="1.4" stroke-linecap="round" stroke-linejoin="round"/>
</svg>
